<?xml version="1.0" standalone="no"?><!DOCTYPE svg PUBLIC "-//W3C//DTD SVG 1.1//EN" "http://www.w3.org/Graphics/SVG/1.1/DTD/svg11.dtd"><svg t="1742534187161" class="icon" viewBox="0 0 1024 1024" version="1.1" xmlns="http://www.w3.org/2000/svg" p-id="6236" xmlns:xlink="http://www.w3.org/1999/xlink" width="200" height="200"><path d="M838.918564 210.760205c19.167179-55.558564-18.825846-127.474872-69.133128-157.879795-50.281026-30.378667-115.003077-32.032821-155.254154 10.791385C592.554667 24.024615 550.780718 9.898667 505.435897 9.898667c-45.344821 0-84.493128 11.500308-106.469743 51.147487-40.251077-42.902974-107.651282-38.675692-157.958564-8.270769-50.359795 30.431179-88.326564 105.025641-69.080616 160.610461C59.680821 298.902974 5.960205 418.002051 5.960205 571.785846c0 257.312821 205.403897 437.037949 499.475692 437.037949s499.449436-179.725128 499.449436-437.037949c0-153.783795-53.720615-275.508513-165.966769-361.025641z" fill="#999999" p-id="6237"></path><path d="M799.980308 224.124718a115.160615 115.160615 0 0 0-192.722052-116.473436 115.213128 115.213128 0 0 0-201.570461 0 115.134359 115.134359 0 0 0-192.722051 116.473436c-103.712821 79.005538-167.883487 201.124103-167.883488 343.223795 0 237.699282 189.728821 403.718564 461.403898 403.718564 271.648821 0 461.377641-166.019282 461.377641-403.718564 0-142.073436-64.170667-264.218256-167.883487-343.223795z" fill="#F2F2F2" p-id="6238"></path><path d="M957.308718 570.814359c0 248.228103-201.281641 387.098256-449.509744 387.098256-229.00841 0-418.080821-118.180103-445.912615-331.277128A504.333128 504.333128 0 0 0 439.112205 795.569231c235.625026 0 433.545846-161.083077 489.865846-379.063795 18.353231 47.051487 28.356923 98.855385 28.356923 154.308923z" fill="#999999" opacity=".2" p-id="6239"></path><path d="M507.798974 545.818256a62.490256 62.490256 0 0 1-62.437743-62.411487 12.498051 12.498051 0 0 1 24.969846 0 37.467897 37.467897 0 1 0 74.935795 0 12.498051 12.498051 0 0 1 24.94359 0 62.490256 62.490256 0 0 1-62.411488 62.411487zM345.481846 383.501128a37.467897 37.467897 0 1 0 74.909539 0 37.467897 37.467897 0 0 0-74.909539 0zM595.206564 383.501128a37.467897 37.467897 0 1 0 74.909539 0 37.467897 37.467897 0 0 0-74.909539 0z" fill="#999999" p-id="6240"></path><path d="M682.614154 445.938872H732.553846a24.969846 24.969846 0 1 1 0 49.939692h-49.939692a24.969846 24.969846 0 0 1 0-49.939692z m-399.570051 0h49.939692a24.969846 24.969846 0 0 1 0 49.939692H283.044103a24.969846 24.969846 0 1 1 0-49.939692z" fill="#E0E0E0" p-id="6241"></path></svg>