<?xml version="1.0" standalone="no"?><!DOCTYPE svg PUBLIC "-//W3C//DTD SVG 1.1//EN" "http://www.w3.org/Graphics/SVG/1.1/DTD/svg11.dtd"><svg t="1742395541454" class="icon" viewBox="0 0 1024 1024" version="1.1" xmlns="http://www.w3.org/2000/svg" p-id="15991" xmlns:xlink="http://www.w3.org/1999/xlink" width="200" height="200"><path d="M228.3 922.72V408.28h659.62v514.44z" fill="#81C8BE" p-id="15992"></path><path d="M894.09 928.88H222.13V402.11h671.96v526.77z m-659.62-12.34h647.29V414.45H234.47v502.09z" fill="#81C8BE" p-id="15993"></path><path d="M700.98 410.46h-61.69v-160.4c0-68.03-55.35-123.38-123.38-123.38s-123.38 55.35-123.38 123.38v160.4h-61.69v-160.4c0-102.06 83.02-185.08 185.08-185.08S701 148 701 250.06v160.4z" fill="#1E4D48" p-id="15994"></path><path d="M916.48 953.56H106.25V282.58h810.23v670.98z m-748.53-61.69h686.84V344.28H167.95v547.59z" fill="#1E4D48" p-id="15995"></path><path d="M363.92 496.83m-74.03 0a74.03 74.03 0 1 0 148.06 0 74.03 74.03 0 1 0-148.06 0Z" fill="#C6E6E2" p-id="15996"></path><path d="M363.91 601.71c-57.82 0-104.88-47.05-104.88-104.88s47.05-104.88 104.88-104.88S468.79 439 468.79 496.83s-47.05 104.88-104.88 104.88z m0-148.06c-23.81 0-43.18 19.38-43.18 43.18 0 23.81 19.38 43.18 43.18 43.18s43.18-19.38 43.18-43.18c0.01-23.81-19.37-43.18-43.18-43.18z" fill="#1E4D48" p-id="15997"></path><path d="M672.38 496.83m-74.03 0a74.03 74.03 0 1 0 148.06 0 74.03 74.03 0 1 0-148.06 0Z" fill="#C6E6E2" p-id="15998"></path><path d="M672.38 601.71c-57.82 0-104.88-47.05-104.88-104.88s47.05-104.88 104.88-104.88c57.82 0 104.88 47.05 104.88 104.88S730.2 601.71 672.38 601.71z m0-148.06c-23.81 0-43.18 19.38-43.18 43.18 0 23.81 19.38 43.18 43.18 43.18 23.81 0 43.18-19.38 43.18-43.18 0-23.81-19.38-43.18-43.18-43.18z" fill="#1E4D48" p-id="15999"></path></svg>