<?xml version="1.0" standalone="no"?><!DOCTYPE svg PUBLIC "-//W3C//DTD SVG 1.1//EN" "http://www.w3.org/Graphics/SVG/1.1/DTD/svg11.dtd"><svg t="1741972157833" class="icon" viewBox="0 0 1024 1024" version="1.1" xmlns="http://www.w3.org/2000/svg" p-id="5719" xmlns:xlink="http://www.w3.org/1999/xlink" width="200" height="200"><path d="M866.986667 809.642667H174.762667c-46.421333 0-83.285333-36.864-83.285334-83.285334v-518.826666c0-46.421333 36.864-83.285333 83.285334-83.285334H866.986667c46.421333 0 83.285333 36.864 83.285333 83.285334v520.192c0 45.056-36.864 81.92-83.285333 81.92zM174.762667 151.552c-30.037333 0-55.978667 24.576-55.978667 55.978667v520.192c0 30.037333 24.576 55.978667 55.978667 55.978666H866.986667c30.037333 0 55.978667-24.576 55.978666-55.978666V207.530667c0-30.037333-24.576-55.978667-55.978666-55.978667H174.762667zM316.757333 921.6h408.234667v27.306667H316.757333z" fill="#46AAFF" p-id="5720"></path><path d="M293.546667 364.544l61.44 64.170667 69.632-60.074667v176.128h189.781333v-177.493333l70.997333 60.074666 57.344-69.632-118.784-91.477333H580.266667c-15.018667 32.768-35.498667 51.882667-60.074667 51.882667-36.864 0-54.613333-20.48-64.170667-51.882667h-55.978666L293.546667 364.544z" fill="#C4E4FF" p-id="5721"></path><path d="M626.688 557.056H409.6V397.312l-55.978667 49.152-80.554666-83.285333 121.514666-110.592h70.997334l2.730666 9.557333c9.557333 30.037333 24.576 42.325333 51.882667 42.325333 17.749333 0 34.133333-15.018667 47.786667-43.690666l4.096-8.192h55.978666l133.802667 103.765333-75.093333 91.477333-60.074667-51.882666v161.109333z m-189.781333-27.306667h162.474666v-191.146666l83.285334 69.632 39.594666-47.786667-103.765333-80.554667h-30.037333c-21.845333 42.325333-49.152 51.882667-68.266667 51.882667-35.498667 0-60.074667-16.384-73.728-51.882667h-40.96l-92.842667 84.650667 42.325334 43.690667 81.92-70.997334v192.512zM91.477333 634.88h858.794667v27.306667H91.477333z" fill="#46AAFF" p-id="5722"></path><path d="M456.021333 714.069333h129.706667v27.306667h-129.706667z" fill="#FBAE2A" p-id="5723"></path></svg>